<?xml version="1.0" encoding="utf-8"?>
<!DOCTYPE svg PUBLIC "-//W3C//DTD SVG 1.1//EN" "http://www.w3.org/Graphics/SVG/1.1/DTD/svg11.dtd">
<svg version="1.1" xmlns="http://www.w3.org/2000/svg" xmlns:xlink="http://www.w3.org/1999/xlink" x="0px" y="0px" viewBox="0 0 1000 1000" enable-background="new 0 0 1000 1000" xml:space="preserve">
<metadata> Svg Vector Icons : http://www.onlinewebfonts.com/icon </metadata>
<g><g transform="translate(0.000000,511.000000) scale(0.100000,-0.100000)"><path d="M4526.1,4928c-656-230-1235.4-883.9-1663.5-1885c-40.5-91.6-72.4-176.8-72.4-187.4s400.4-19.2,969.1-19.2h969.1V3912c0,592.1-6.4,1075.6-14.9,1075.6C4702.9,4987.6,4619.8,4960,4526.1,4928z"/><path d="M5282.2,3914.1V2836.4h990.4c545.3,0,990.4,4.3,990.4,10.6c0,4.3-53.3,129.9-117.1,279c-330.1,754-781.7,1335.5-1269.5,1631.6c-151.2,91.6-400.4,198.1-513.3,219.4l-80.9,14.9V3914.1z"/><path d="M3003.1,4587.2C2411,4321,1931.8,3982.3,1478.1,3513.7c-200.2-206.6-541-626.2-541-664.5c0-6.4,285.4-12.8,634.7-12.8h634.7l80.9,219.4c172.5,472.9,534.6,1126.8,809.4,1452.6c115,138.5,147,181,138.4,181C3231.1,4687.3,3126.7,4642.6,3003.1,4587.2z"/><path d="M6994.7,4446.6c291.8-372.7,568.7-877.6,756.1-1376l85.2-223.6l619.8-6.4l619.8-4.3l-66,93.7c-443,645.4-1158.7,1252.4-1885,1597.5C6815.8,4676.7,6815.8,4676.7,6994.7,4446.6z"/><path d="M528.1,2118.6c-110.8-244.9-200.2-496.3-272.6-779.6c-63.9-244.9-149.1-745.5-149.1-881.8v-70.3h841.3h841.3v134.2c0,398.3,142.7,1390.9,247.1,1725.3c10.6,34.1-31.9,36.2-711.4,36.2H602.7L528.1,2118.6z"/><path d="M2577.2,2203.8c-98-347.2-213-1084.2-247.1-1597.5l-14.9-219.4h1207.7h1205.6v947.8v947.8h-1065H2600.6L2577.2,2203.8z"/><path d="M5282.2,1334.7V386.9H6507h1224.7l-10.6,80.9c-4.3,42.6-14.9,178.9-21.3,302.5c-21.3,385.5-91.6,841.3-196,1273.7l-57.5,238.6h-1082h-1082V1334.7z"/><path d="M8017.1,2235.7c95.8-353.6,191.7-981.9,227.9-1501.6l25.6-347.2h813.7H9900l-10.7,102.2c-53.2,592.1-198.1,1160.8-411.1,1618.8l-83.1,174.7h-696.5h-694.4L8017.1,2235.7z"/><path d="M117-341.6c42.6-511.2,193.8-1084.2,409-1552.8l76.7-168.3h722.1c607,0,722.1,4.3,713.5,29.8c-6.4,14.9-36.2,138.4-66,270.5c-95.8,432.4-183.2,1126.7-183.2,1452.6v142.7H945.6H100L117-341.6z"/><path d="M2330.1-384.2c38.3-570.8,127.8-1145.9,249.2-1597.5l21.3-80.9h1062.9h1065v947.8v947.8H3522.9H2315.2L2330.1-384.2z"/><path d="M5282.2-1114.7v-947.8h1084.2h1082l57.5,240.7c102.2,436.6,172.5,892.5,193.8,1271.6c6.4,123.5,17,259.9,21.3,304.6l10.6,78.8H6507H5282.2V-1114.7z"/><path d="M8245-522.6c-36.2-506.9-125.7-1090.5-225.8-1480.3l-14.9-59.6h698.6h700.8l72.4,166.1c219.4,494.2,372.8,1090.5,413.2,1618.8l8.5,110.8h-813.7h-813.7L8245-522.6z"/><path d="M937.1-2631.3c0-42.6,340.8-457.9,560.2-681.6c426-436.7,856.2-745.5,1388.7-996.8c151.2-72.4,296.1-138.4,317.4-147c46.9-14.9,51.1-25.5-123.5,189.6c-270.5,328-596.4,915.9-781.7,1399.4l-93.7,251.3h-632.6C1222.5-2616.4,937.1-2622.8,937.1-2631.3z"/><path d="M2790.2-2635.5c0-70.3,293.9-671,449.4-922.3c366.3-592.1,856.2-1022.4,1327-1165.1c78.8-25.5,149.1-44.7,153.4-44.7c4.3,0,8.5,483.5,8.5,1075.6v1075.6h-969.1C3190.6-2616.4,2790.2-2624.9,2790.2-2635.5z"/><path d="M5282.2-3694.1v-1077.8l80.9,14.9c110.8,19.2,332.3,110.8,477.1,196c504.8,296.1,977.7,894.6,1307.8,1657.1c63.9,144.8,115,270.5,115,276.9c0,6.4-445.2,10.7-990.4,10.7h-990.4V-3694.1z"/><path d="M7823.3-2652.6c-202.3-590-498.4-1152.3-828.5-1574c-85.2-110.8-144.9-200.2-132.1-200.2c12.8,0,151.2,61.8,304.6,138.4c670.9,332.3,1273.7,826.4,1721,1412.2c85.2,115,164,219.4,172.5,234.3c12.8,19.2-115,25.6-604.9,25.6C7885-2616.4,7836.1-2618.5,7823.3-2652.6z"/></g></g>
</svg>